<svg xmlns="http://www.w3.org/2000/svg" xmlns:xlink="http://www.w3.org/1999/xlink" width="500" zoomAndPan="magnify" viewBox="0 0 375 104.999996" height="140" preserveAspectRatio="xMidYMid meet" version="1.0"><defs><filter x="0%" y="0%" width="100%" height="100%" id="d44060667c"><feColorMatrix values="0 0 0 0 1 0 0 0 0 1 0 0 0 0 1 0 0 0 1 0" color-interpolation-filters="sRGB"/></filter><g/><clipPath id="a0a48804cd"><path d="M 6 5 L 74.878906 5 L 74.878906 88.71875 L 6 88.71875 Z M 6 5 " clip-rule="nonzero"/></clipPath><clipPath id="e7766636ee"><path d="M 16 27 L 74.878906 27 L 74.878906 88.71875 L 16 88.71875 Z M 16 27 " clip-rule="nonzero"/></clipPath><mask id="d6bb9f2a90"><g filter="url(#d44060667c)"><rect x="-94.5" width="540" fill="#000000" y="-31.099999" height="151.199994" fill-opacity="0.28"/></g></mask><clipPath id="7bf7b5aa06"><path d="M 0.320312 0.28125 L 58.878906 0.28125 L 58.878906 61.71875 L 0.320312 61.71875 Z M 0.320312 0.28125 " clip-rule="nonzero"/></clipPath><clipPath id="8a635a84e2"><rect x="0" width="59" y="0" height="62"/></clipPath><clipPath id="4435831ffb"><path d="M 45 27 L 74.878906 27 L 74.878906 76 L 45 76 Z M 45 27 " clip-rule="nonzero"/></clipPath><mask id="df333e8260"><g filter="url(#d44060667c)"><rect x="-94.5" width="540" fill="#000000" y="-31.099999" height="151.199994" fill-opacity="0.1"/></g></mask><clipPath id="6e4a3e3517"><path d="M 0.601562 0.28125 L 29.878906 0.28125 L 29.878906 48 L 0.601562 48 Z M 0.601562 0.28125 " clip-rule="nonzero"/></clipPath><clipPath id="c13eaf37a9"><rect x="0" width="30" y="0" height="49"/></clipPath><clipPath id="4758f3e158"><path d="M 45 27 L 74.878906 27 L 74.878906 88.71875 L 45 88.71875 Z M 45 27 " clip-rule="nonzero"/></clipPath><mask id="543444a4f3"><g filter="url(#d44060667c)"><rect x="-94.5" width="540" fill="#000000" y="-31.099999" height="151.199994" fill-opacity="0.5"/></g></mask><clipPath id="e87506968e"><path d="M 0.121094 0.28125 L 29.878906 0.28125 L 29.878906 61.71875 L 0.121094 61.71875 Z M 0.121094 0.28125 " clip-rule="nonzero"/></clipPath><clipPath id="692bc11e11"><rect x="0" width="30" y="0" height="62"/></clipPath><mask id="f70d049993"><g filter="url(#d44060667c)"><rect x="-94.5" width="540" fill="#000000" y="-31.099999" height="151.199994" fill-opacity="0.21"/></g></mask><clipPath id="d87a48c26b"><path d="M 1 0.359375 L 26.558594 0.359375 L 26.558594 29.640625 L 1 29.640625 Z M 1 0.359375 " clip-rule="nonzero"/></clipPath><clipPath id="5a0224b824"><rect x="0" width="27" y="0" height="30"/></clipPath><clipPath id="e133964739"><path d="M 47 27 L 74.878906 27 L 74.878906 88.71875 L 47 88.71875 Z M 47 27 " clip-rule="nonzero"/></clipPath><mask id="39808f1a53"><g filter="url(#d44060667c)"><rect x="-94.5" width="540" fill="#000000" y="-31.099999" height="151.199994" fill-opacity="0.51"/></g></mask><clipPath id="65f05c4dbd"><path d="M 0.761719 0.28125 L 27.878906 0.28125 L 27.878906 61.71875 L 0.761719 61.71875 Z M 0.761719 0.28125 " clip-rule="nonzero"/></clipPath><clipPath id="de6a649a2d"><rect x="0" width="28" y="0" height="62"/></clipPath><clipPath id="dad7f4d6e9"><path d="M 52 42 L 74.878906 42 L 74.878906 76 L 52 76 Z M 52 42 " clip-rule="nonzero"/></clipPath><mask id="902ab5bcd5"><g filter="url(#d44060667c)"><rect x="-94.5" width="540" fill="#000000" y="-31.099999" height="151.199994" fill-opacity="0.42"/></g></mask><clipPath id="31a7180e39"><path d="M 0.480469 0.160156 L 40.800781 0.160156 L 40.800781 45.519531 L 0.480469 45.519531 Z M 0.480469 0.160156 " clip-rule="nonzero"/></clipPath><clipPath id="3bea7bbfbc"><rect x="0" width="41" y="0" height="46"/></clipPath><clipPath id="fb82ef0fae"><rect x="0" width="75" y="0" height="89"/></clipPath><clipPath id="b01ed74f22"><rect x="0" width="276" y="0" height="71"/></clipPath><clipPath id="33d2150e51"><rect x="0" width="277" y="0" height="41"/></clipPath></defs><g transform="matrix(1, 0, 0, 1, 12, 8)"><g clip-path="url(#fb82ef0fae)"><g clip-path="url(#a0a48804cd)"><path fill="#00e1e2" d="M 8.515625 38.1875 L 9.558594 27.882812 C 8.695312 27.664062 8.054688 26.882812 8.054688 25.949219 C 8.054688 24.878906 8.898438 24.007812 9.957031 23.957031 L 10.535156 18.234375 C 10.027344 18.003906 9.683594 17.46875 9.734375 16.859375 C 9.792969 16.210938 10.316406 15.675781 10.964844 15.609375 C 11.308594 15.574219 11.628906 15.664062 11.886719 15.839844 C 13.296875 14.890625 16.003906 13.183594 19.542969 11.480469 C 19.816406 11.351562 20.097656 11.21875 20.386719 11.085938 C 20.289062 10.730469 20.277344 10.34375 20.421875 9.933594 C 20.6875 9.167969 21.386719 8.609375 22.195312 8.5625 C 22.976562 8.519531 23.667969 8.925781 24.03125 9.546875 C 28.523438 7.820312 34.125 6.304688 40.03125 6.246094 C 41.984375 6.230469 43.957031 6.421875 45.9375 6.816406 C 46.144531 6.855469 46.351562 6.898438 46.558594 6.945312 C 46.859375 6.226562 47.570312 5.722656 48.398438 5.722656 C 49.503906 5.722656 50.398438 6.617188 50.398438 7.71875 C 50.398438 7.828125 50.386719 7.933594 50.371094 8.035156 C 51.433594 8.410156 52.5 8.839844 53.5625 9.328125 C 57.292969 11.046875 60.28125 13.144531 62.402344 14.886719 C 62.800781 14.597656 63.308594 14.445312 63.855469 14.519531 C 64.753906 14.636719 65.472656 15.375 65.566406 16.277344 C 65.699219 17.480469 64.757812 18.496094 63.582031 18.496094 C 62.996094 18.496094 62.472656 18.242188 62.105469 17.839844 L 59.679688 19.453125 C 61.191406 19.808594 62.742188 20.316406 64.328125 20.992188 L 48.183594 30.21875 C 47.484375 30.621094 46.886719 31.179688 46.441406 31.859375 L 40.214844 41.367188 C 39.726562 42.113281 39.746094 43.078125 40.261719 43.804688 L 43.617188 48.511719 L 41.535156 43.789062 C 41.21875 43.0625 41.320312 42.226562 41.800781 41.601562 L 47.574219 34.09375 L 47.664062 33.972656 C 48.363281 33.035156 49.359375 32.367188 50.488281 32.074219 L 55.28125 30.835938 L 68.582031 27.398438 C 68.582031 27.402344 68.582031 27.402344 68.582031 27.40625 C 67.714844 31.542969 65.945312 36.925781 66.742188 39.949219 C 67.539062 42.984375 71.96875 48.574219 74.324219 51.394531 C 75.003906 52.210938 74.636719 53.457031 73.621094 53.773438 C 72.183594 54.222656 70.382812 54.8125 69.375 55.257812 C 68.351562 55.710938 68.613281 56.953125 69.0625 57.980469 C 69.425781 58.820312 68.945312 59.789062 68.058594 60.015625 L 65.863281 60.582031 L 67.542969 62.058594 C 67.980469 62.445312 67.945312 63.152344 67.453125 63.46875 C 66.441406 64.117188 65.265625 65.613281 66.191406 68.976562 C 67.671875 74.351562 63.882812 74.332031 54.402344 74.78125 C 54.1875 74.792969 53.976562 74.808594 53.78125 74.832031 C 45.65625 75.808594 54.402344 87.738281 54.976562 88.507812 L 55.003906 88.542969 C 55.003906 88.542969 55.003906 88.546875 55.007812 88.546875 C 41.335938 79.765625 28.664062 76.476562 16.574219 76.363281 C 16.574219 76.363281 18.007812 73.464844 18.914062 69.804688 C 18.160156 69.550781 17.605469 68.859375 17.554688 68.03125 C 17.488281 66.921875 18.398438 65.933594 19.507812 65.914062 C 19.882812 65.90625 20.234375 66 20.535156 66.175781 L 29.027344 55.398438 C 28.984375 55.351562 28.941406 55.304688 28.902344 55.25 L 20.855469 59.695312 C 20.988281 60.050781 21.027344 60.449219 20.925781 60.867188 C 20.71875 61.695312 19.996094 62.3125 19.152344 62.378906 C 17.972656 62.476562 16.988281 61.546875 16.988281 60.390625 C 16.988281 59.660156 17.378906 59.023438 17.964844 58.675781 C 17.035156 56.535156 15.734375 53.917969 14.390625 51.339844 C 14.164062 50.90625 13.933594 50.46875 13.707031 50.039062 C 13.464844 50.101562 13.195312 50.101562 12.90625 49.972656 C 12.492188 49.789062 12.195312 49.386719 12.164062 48.933594 C 12.136719 48.53125 12.304688 48.167969 12.578125 47.925781 C 11.296875 45.554688 10.113281 43.4375 9.328125 42.042969 C 9.042969 42.15625 8.726562 42.203125 8.390625 42.167969 C 7.417969 42.058594 6.652344 41.234375 6.617188 40.253906 C 6.578125 39.152344 7.433594 38.242188 8.515625 38.1875 Z M 11.121094 18.363281 L 10.550781 24.015625 C 10.875 24.101562 11.167969 24.261719 11.40625 24.484375 L 17.535156 19.5625 C 17.464844 19.40625 17.421875 19.230469 17.421875 19.046875 C 17.421875 19.011719 17.425781 18.980469 17.425781 18.949219 L 12.375 17.542969 C 12.160156 18.023438 11.679688 18.359375 11.121094 18.363281 Z M 12.011719 26.34375 L 19.675781 29.136719 C 20.140625 28.050781 20.960938 27.15625 21.988281 26.59375 L 18.976562 20.234375 C 18.871094 20.261719 18.765625 20.277344 18.65625 20.277344 C 18.375 20.277344 18.117188 20.183594 17.910156 20.027344 L 11.78125 24.949219 C 11.953125 25.242188 12.050781 25.585938 12.050781 25.949219 C 12.050781 26.085938 12.039062 26.21875 12.011719 26.34375 Z M 20.082031 34.054688 L 10.476562 39.472656 C 10.558594 39.683594 10.605469 39.910156 10.609375 40.148438 L 17.160156 41.042969 L 19.171875 41.3125 C 19.351562 40.859375 19.796875 40.539062 20.3125 40.539062 C 20.371094 40.539062 20.425781 40.546875 20.476562 40.550781 L 22.292969 35.984375 C 21.660156 35.691406 21.097656 35.273438 20.632812 34.765625 C 20.429688 34.546875 20.246094 34.308594 20.082031 34.054688 Z M 20.636719 11.644531 C 16.769531 13.429688 13.820312 15.269531 12.300781 16.285156 C 12.417969 16.480469 12.484375 16.710938 12.492188 16.953125 L 17.621094 18.378906 C 17.839844 18.039062 18.21875 17.816406 18.652344 17.816406 C 18.734375 17.816406 18.8125 17.824219 18.886719 17.839844 L 21.261719 12.257812 C 21.011719 12.101562 20.796875 11.890625 20.636719 11.644531 Z M 22.222656 12.550781 C 22.082031 12.546875 21.945312 12.523438 21.8125 12.492188 L 19.429688 18.089844 C 19.707031 18.316406 19.886719 18.660156 19.886719 19.046875 C 19.886719 19.398438 19.734375 19.71875 19.496094 19.941406 L 22.53125 26.335938 C 22.886719 26.191406 23.265625 26.085938 23.660156 26.019531 Z M 23.789062 11.898438 C 23.53125 12.183594 23.199219 12.390625 22.816406 12.488281 L 24.25 25.957031 C 24.339844 25.953125 24.425781 25.949219 24.511719 25.949219 C 25.871094 25.949219 27.113281 26.46875 28.046875 27.316406 L 34.65625 20.820312 C 34.324219 20.460938 34.125 19.988281 34.125 19.464844 C 34.125 19.246094 34.160156 19.039062 34.226562 18.839844 Z M 48.023438 59.28125 C 47.890625 59.328125 47.75 59.355469 47.601562 59.355469 C 47.308594 59.355469 47.042969 59.253906 46.832031 59.082031 L 40.757812 63.675781 C 40.800781 63.78125 40.832031 63.898438 40.847656 64.023438 L 47.683594 64.953125 C 47.847656 64.519531 48.25 64.199219 48.738281 64.160156 C 48.78125 62.613281 48.558594 60.972656 48.023438 59.28125 Z M 46.378906 57.980469 L 32.339844 54.765625 C 32.261719 54.964844 32.15625 55.148438 32.019531 55.3125 L 39.042969 63.070312 C 39.214844 62.976562 39.414062 62.925781 39.621094 62.925781 C 39.914062 62.925781 40.183594 63.027344 40.394531 63.199219 L 46.46875 58.605469 C 46.40625 58.457031 46.371094 58.292969 46.371094 58.125 C 46.371094 58.074219 46.375 58.027344 46.378906 57.980469 Z M 37.449219 75.984375 C 42.988281 75.421875 47.289062 71.695312 48.441406 66.554688 C 48.003906 66.40625 47.675781 66.019531 47.613281 65.550781 L 40.765625 64.613281 C 40.582031 65.066406 40.140625 65.386719 39.621094 65.386719 C 39.617188 65.386719 39.609375 65.386719 39.605469 65.386719 L 37.042969 75.046875 C 37.292969 75.273438 37.453125 75.597656 37.453125 75.960938 C 37.453125 75.96875 37.449219 75.976562 37.449219 75.984375 Z M 39.027344 65.234375 C 38.648438 65.023438 38.390625 64.621094 38.390625 64.15625 C 38.390625 63.902344 38.46875 63.667969 38.597656 63.472656 L 31.574219 55.707031 C 31.480469 55.769531 31.378906 55.824219 31.273438 55.871094 L 36.207031 74.730469 L 36.21875 74.730469 C 36.316406 74.730469 36.410156 74.742188 36.503906 74.761719 Z M 34.992188 76.027344 C 34.992188 76.003906 34.988281 75.984375 34.988281 75.960938 C 34.988281 75.742188 35.046875 75.535156 35.148438 75.359375 L 28.933594 67.015625 C 28.796875 67.070312 28.644531 67.101562 28.484375 67.101562 C 28.035156 67.101562 27.640625 66.855469 27.425781 66.492188 L 21.539062 68.007812 C 21.519531 68.453125 21.355469 68.859375 21.089844 69.179688 C 23.90625 72.03125 27.652344 74.582031 32.515625 75.667969 C 33.355469 75.855469 34.183594 75.972656 34.992188 76.027344 Z M 29.71875 65.867188 C 29.71875 66.175781 29.605469 66.453125 29.421875 66.667969 L 35.566406 74.917969 C 35.585938 74.90625 35.609375 74.890625 35.628906 74.878906 L 30.695312 56.023438 C 30.625 56.027344 30.554688 56.03125 30.484375 56.03125 L 30.476562 56.03125 L 28.988281 64.746094 C 29.417969 64.9375 29.71875 65.367188 29.71875 65.867188 Z M 30.484375 52.039062 C 30.726562 52.039062 30.960938 52.082031 31.175781 52.164062 L 35.597656 44.15625 C 35.367188 43.929688 35.222656 43.617188 35.222656 43.273438 C 35.222656 43.039062 35.289062 42.820312 35.402344 42.636719 L 27.996094 35.15625 C 27.460938 35.628906 26.828125 35.996094 26.132812 36.21875 L 30.273438 52.050781 C 30.34375 52.042969 30.410156 52.039062 30.484375 52.039062 Z M 42.445312 27.996094 L 39.433594 24.203125 L 37.070312 21.222656 C 36.789062 21.378906 36.464844 21.464844 36.121094 21.464844 C 35.757812 21.464844 35.417969 21.363281 35.125 21.195312 L 28.464844 27.742188 C 28.574219 27.863281 28.675781 27.992188 28.769531 28.125 C 29.261719 28.796875 29.59375 29.59375 29.71875 30.457031 L 42.039062 29.382812 C 42.035156 29.328125 42.03125 29.273438 42.03125 29.214844 C 42.03125 28.757812 42.1875 28.335938 42.445312 27.996094 Z M 42.179688 29.96875 L 29.769531 31.054688 C 29.769531 31.105469 29.773438 31.160156 29.773438 31.210938 C 29.773438 31.761719 29.691406 32.289062 29.535156 32.785156 L 33.488281 34.277344 C 33.695312 33.894531 34.097656 33.640625 34.5625 33.640625 C 34.90625 33.640625 35.214844 33.78125 35.4375 34.003906 L 42.1875 29.996094 C 42.183594 29.988281 42.183594 29.976562 42.179688 29.96875 Z M 34.398438 36.089844 C 33.796875 36.011719 33.332031 35.496094 33.332031 34.871094 L 33.332031 34.855469 L 29.320312 33.34375 C 29.09375 33.855469 28.789062 34.324219 28.421875 34.734375 L 35.828125 42.214844 C 35.84375 42.207031 35.855469 42.195312 35.871094 42.1875 Z M 34.496094 18.304688 C 34.78125 17.910156 35.203125 17.621094 35.695312 17.515625 L 35.429688 12.796875 C 34.929688 12.699219 34.535156 12.300781 34.449219 11.792969 L 24.257812 11.007812 C 24.222656 11.144531 24.179688 11.277344 24.121094 11.402344 Z M 46.414062 7.511719 C 46.3125 7.488281 46.210938 7.46875 46.109375 7.445312 C 44.183594 7.046875 42.15625 6.824219 40.039062 6.84375 C 34.324219 6.902344 28.863281 8.332031 24.257812 10.109375 C 24.28125 10.207031 24.292969 10.308594 24.300781 10.414062 L 34.496094 11.199219 C 34.660156 10.710938 35.121094 10.355469 35.664062 10.355469 C 36.109375 10.355469 36.503906 10.597656 36.71875 10.957031 L 46.257812 8.058594 L 46.425781 8.007812 C 46.410156 7.914062 46.402344 7.820312 46.402344 7.71875 C 46.402344 7.648438 46.40625 7.578125 46.414062 7.511719 Z M 46.597656 8.578125 L 46.386719 8.644531 L 36.890625 11.527344 C 36.890625 11.546875 36.894531 11.566406 36.894531 11.585938 C 36.894531 12.140625 36.527344 12.609375 36.027344 12.765625 L 36.292969 17.476562 C 36.757812 17.515625 37.179688 17.71875 37.5 18.023438 L 46.488281 9.179688 L 46.78125 8.890625 C 46.710938 8.792969 46.652344 8.6875 46.597656 8.578125 Z M 50.199219 8.585938 C 50.011719 8.976562 49.703125 9.292969 49.320312 9.492188 L 51.832031 16.835938 C 51.863281 16.832031 51.898438 16.832031 51.933594 16.832031 C 52.402344 16.832031 52.8125 17.09375 53.019531 17.480469 L 61.589844 16.4375 C 61.601562 16.015625 61.742188 15.628906 61.976562 15.3125 C 59.460938 13.253906 55.355469 10.398438 50.199219 8.585938 Z M 45.660156 28.066406 L 61.773438 17.34375 C 61.726562 17.242188 61.691406 17.140625 61.660156 17.03125 L 53.164062 18.066406 C 53.164062 18.742188 52.613281 19.292969 51.933594 19.292969 C 51.78125 19.292969 51.636719 19.265625 51.503906 19.214844 L 45.503906 27.871094 C 45.558594 27.933594 45.609375 27.996094 45.660156 28.066406 Z M 45.039062 27.496094 L 51.011719 18.875 C 50.820312 18.660156 50.703125 18.375 50.703125 18.0625 C 50.703125 17.628906 50.925781 17.25 51.265625 17.03125 L 48.757812 9.683594 C 48.640625 9.703125 48.519531 9.71875 48.398438 9.71875 C 48.367188 9.71875 48.335938 9.714844 48.304688 9.710938 L 44.761719 27.359375 C 44.859375 27.398438 44.949219 27.441406 45.039062 27.496094 Z M 44.179688 27.226562 L 47.71875 9.597656 C 47.53125 9.527344 47.359375 9.433594 47.203125 9.316406 L 46.601562 9.90625 L 37.867188 18.496094 C 38.027344 18.785156 38.117188 19.113281 38.117188 19.464844 C 38.117188 20.011719 37.902344 20.503906 37.550781 20.863281 L 39.957031 23.898438 L 42.878906 27.582031 C 43.203125 27.351562 43.601562 27.21875 44.027344 27.21875 C 44.078125 27.21875 44.128906 27.222656 44.179688 27.226562 Z M 42.925781 30.882812 C 42.769531 30.777344 42.625 30.648438 42.503906 30.503906 L 35.742188 34.519531 C 35.777344 34.628906 35.792969 34.75 35.792969 34.871094 C 35.792969 35.398438 35.464844 35.847656 34.996094 36.023438 L 36.453125 42.042969 L 36.457031 42.042969 C 36.554688 42.042969 36.652344 42.054688 36.746094 42.078125 Z M 40.664062 48.753906 C 39.132812 47.390625 37.929688 45.90625 37.027344 44.363281 C 36.855469 44.453125 36.664062 44.503906 36.457031 44.503906 C 36.335938 44.503906 36.222656 44.488281 36.113281 44.457031 L 31.699219 52.453125 C 32.175781 52.816406 32.480469 53.390625 32.480469 54.035156 C 32.480469 54.085938 32.476562 54.136719 32.472656 54.183594 L 46.59375 57.417969 C 46.726562 57.230469 46.90625 57.085938 47.117188 56.992188 C 45.828125 54.285156 43.734375 51.492188 40.664062 48.753906 Z M 21.003906 66.546875 C 21.226562 66.785156 21.394531 67.078125 21.480469 67.40625 L 27.257812 65.917969 C 27.257812 65.902344 27.253906 65.886719 27.253906 65.867188 C 27.253906 65.21875 27.761719 64.6875 28.398438 64.640625 L 29.886719 55.941406 C 29.75 55.898438 29.617188 55.839844 29.496094 55.769531 Z M 29.453125 52.328125 C 29.53125 52.28125 29.609375 52.234375 29.695312 52.199219 L 25.550781 36.371094 C 25.214844 36.4375 24.867188 36.476562 24.511719 36.476562 C 23.929688 36.476562 23.371094 36.378906 22.847656 36.207031 L 21.03125 40.773438 C 21.34375 40.996094 21.546875 41.359375 21.546875 41.769531 C 21.546875 42.042969 21.457031 42.296875 21.304688 42.5 Z M 20.566406 59.175781 L 28.613281 54.730469 C 28.53125 54.511719 28.484375 54.28125 28.484375 54.035156 C 28.484375 53.527344 28.679688 53.0625 28.992188 52.707031 L 20.847656 42.882812 C 20.753906 42.925781 20.65625 42.960938 20.554688 42.980469 L 19.425781 58.445312 C 19.886719 58.546875 20.289062 58.8125 20.566406 59.175781 Z M 14.554688 50.367188 C 16.03125 53.179688 17.496094 56.097656 18.515625 58.449219 C 18.617188 58.425781 18.722656 58.410156 18.832031 58.402344 L 19.957031 42.949219 C 19.863281 42.921875 19.777344 42.882812 19.691406 42.832031 L 15.140625 47.492188 L 14.441406 48.203125 C 14.554688 48.394531 14.625 48.613281 14.625 48.851562 C 14.625 49.207031 14.472656 49.527344 14.230469 49.75 C 14.339844 49.957031 14.445312 50.160156 14.554688 50.367188 Z M 13.109375 47.652344 C 13.199219 47.628906 13.296875 47.617188 13.394531 47.617188 C 13.621094 47.617188 13.832031 47.679688 14.011719 47.789062 L 15.417969 46.351562 L 19.265625 42.414062 C 19.171875 42.265625 19.109375 42.089844 19.089844 41.90625 L 16.929688 41.613281 L 10.527344 40.742188 C 10.410156 41.144531 10.167969 41.496094 9.847656 41.75 C 10.636719 43.144531 11.824219 45.269531 13.109375 47.652344 Z M 10.183594 38.953125 L 19.789062 33.535156 C 19.445312 32.832031 19.25 32.046875 19.25 31.210938 C 19.25 30.6875 19.328125 30.175781 19.472656 29.695312 L 11.808594 26.90625 C 11.484375 27.5 10.867188 27.90625 10.152344 27.941406 L 9.109375 38.25 C 9.539062 38.359375 9.917969 38.609375 10.183594 38.953125 Z M 10.183594 38.953125 " fill-opacity="1" fill-rule="nonzero"/></g><path fill="#fa3aab" d="M 41.359375 17.667969 C 41.359375 17.84375 41.421875 17.996094 41.546875 18.121094 C 41.671875 18.242188 41.820312 18.304688 41.996094 18.304688 C 42.171875 18.304688 42.324219 18.242188 42.445312 18.121094 C 42.570312 17.996094 42.632812 17.84375 42.632812 17.667969 C 42.632812 17.492188 42.570312 17.34375 42.445312 17.21875 C 42.324219 17.09375 42.171875 17.035156 41.996094 17.035156 C 41.820312 17.035156 41.671875 17.09375 41.546875 17.21875 C 41.421875 17.34375 41.359375 17.492188 41.359375 17.667969 Z M 41.359375 17.667969 " fill-opacity="1" fill-rule="nonzero"/><path fill="#fa3aab" d="M 37.546875 8.722656 C 37.546875 8.917969 37.617188 9.085938 37.753906 9.222656 C 37.894531 9.363281 38.058594 9.429688 38.253906 9.429688 C 38.449219 9.429688 38.617188 9.363281 38.753906 9.222656 C 38.894531 9.085938 38.960938 8.917969 38.960938 8.722656 C 38.960938 8.527344 38.894531 8.359375 38.753906 8.222656 C 38.617188 8.085938 38.449219 8.015625 38.253906 8.015625 C 38.058594 8.015625 37.894531 8.085938 37.753906 8.222656 C 37.617188 8.359375 37.546875 8.527344 37.546875 8.722656 Z M 37.546875 8.722656 " fill-opacity="1" fill-rule="nonzero"/><path fill="#fa3aab" d="M 24.257812 2.988281 C 24.257812 3.242188 24.304688 3.488281 24.402344 3.726562 C 24.5 3.960938 24.640625 4.171875 24.820312 4.351562 C 25.003906 4.535156 25.210938 4.671875 25.449219 4.769531 C 25.683594 4.871094 25.929688 4.917969 26.1875 4.917969 C 26.445312 4.917969 26.691406 4.871094 26.925781 4.769531 C 27.164062 4.671875 27.371094 4.535156 27.554688 4.351562 C 27.734375 4.171875 27.875 3.960938 27.972656 3.726562 C 28.070312 3.488281 28.117188 3.242188 28.117188 2.988281 C 28.117188 2.730469 28.070312 2.484375 27.972656 2.25 C 27.875 2.011719 27.734375 1.800781 27.554688 1.621094 C 27.371094 1.441406 27.164062 1.300781 26.925781 1.203125 C 26.691406 1.105469 26.445312 1.054688 26.1875 1.054688 C 25.929688 1.054688 25.683594 1.105469 25.449219 1.203125 C 25.210938 1.300781 25.003906 1.441406 24.820312 1.621094 C 24.640625 1.800781 24.5 2.011719 24.402344 2.25 C 24.304688 2.484375 24.257812 2.730469 24.257812 2.988281 Z M 24.257812 2.988281 " fill-opacity="1" fill-rule="nonzero"/><path fill="#fa3aab" d="M 1.253906 16.03125 C 1.253906 16.195312 1.308594 16.332031 1.425781 16.449219 C 1.539062 16.5625 1.679688 16.621094 1.84375 16.621094 C 2.003906 16.621094 2.144531 16.5625 2.257812 16.449219 C 2.375 16.332031 2.433594 16.195312 2.433594 16.03125 C 2.433594 15.867188 2.375 15.730469 2.257812 15.613281 C 2.144531 15.5 2.003906 15.441406 1.84375 15.441406 C 1.679688 15.441406 1.539062 15.5 1.425781 15.613281 C 1.308594 15.730469 1.253906 15.867188 1.253906 16.03125 Z M 1.253906 16.03125 " fill-opacity="1" fill-rule="nonzero"/><path fill="#fa3aab" d="M 4.230469 25.289062 C 4.230469 25.410156 4.269531 25.511719 4.355469 25.59375 C 4.4375 25.679688 4.539062 25.71875 4.660156 25.71875 C 4.777344 25.71875 4.878906 25.679688 4.964844 25.59375 C 5.046875 25.511719 5.089844 25.410156 5.089844 25.289062 C 5.089844 25.171875 5.046875 25.070312 4.964844 24.984375 C 4.878906 24.902344 4.777344 24.859375 4.660156 24.859375 C 4.539062 24.859375 4.4375 24.902344 4.355469 24.984375 C 4.269531 25.070312 4.230469 25.171875 4.230469 25.289062 Z M 4.230469 25.289062 " fill-opacity="1" fill-rule="nonzero"/><path fill="#fa3aab" d="M 13.261719 8.015625 C 13.261719 8.234375 13.335938 8.417969 13.488281 8.570312 C 13.640625 8.722656 13.828125 8.800781 14.042969 8.800781 C 14.257812 8.800781 14.445312 8.722656 14.597656 8.570312 C 14.75 8.417969 14.824219 8.234375 14.824219 8.015625 C 14.824219 7.800781 14.75 7.617188 14.597656 7.464844 C 14.445312 7.3125 14.257812 7.234375 14.042969 7.234375 C 13.828125 7.234375 13.640625 7.3125 13.488281 7.464844 C 13.335938 7.617188 13.261719 7.800781 13.261719 8.015625 Z M 13.261719 8.015625 " fill-opacity="1" fill-rule="nonzero"/><path fill="#fa3aab" d="M 2.957031 34.054688 C 2.957031 34.203125 2.984375 34.34375 3.039062 34.480469 C 3.097656 34.617188 3.175781 34.738281 3.28125 34.84375 C 3.386719 34.945312 3.507812 35.027344 3.644531 35.085938 C 3.78125 35.140625 3.921875 35.167969 4.070312 35.167969 C 4.21875 35.167969 4.359375 35.140625 4.496094 35.085938 C 4.632812 35.027344 4.753906 34.945312 4.859375 34.84375 C 4.960938 34.738281 5.042969 34.617188 5.097656 34.480469 C 5.15625 34.34375 5.183594 34.203125 5.183594 34.054688 C 5.183594 33.90625 5.15625 33.765625 5.097656 33.628906 C 5.042969 33.492188 4.960938 33.371094 4.859375 33.265625 C 4.753906 33.160156 4.632812 33.082031 4.496094 33.023438 C 4.359375 32.96875 4.21875 32.941406 4.070312 32.941406 C 3.921875 32.941406 3.78125 32.96875 3.644531 33.023438 C 3.507812 33.082031 3.386719 33.160156 3.28125 33.265625 C 3.175781 33.371094 3.097656 33.492188 3.039062 33.628906 C 2.984375 33.765625 2.957031 33.90625 2.957031 34.054688 Z M 2.957031 34.054688 " fill-opacity="1" fill-rule="nonzero"/><path fill="#fa3aab" d="M 9.847656 58.535156 C 9.847656 58.800781 9.941406 59.027344 10.128906 59.214844 C 10.320312 59.40625 10.546875 59.5 10.8125 59.5 C 11.078125 59.5 11.308594 59.40625 11.496094 59.214844 C 11.683594 59.027344 11.777344 58.800781 11.777344 58.535156 C 11.777344 58.265625 11.683594 58.039062 11.496094 57.851562 C 11.308594 57.664062 11.078125 57.566406 10.8125 57.566406 C 10.546875 57.566406 10.320312 57.664062 10.128906 57.851562 C 9.941406 58.039062 9.847656 58.265625 9.847656 58.535156 Z M 9.847656 58.535156 " fill-opacity="1" fill-rule="nonzero"/><path fill="#fa3aab" d="M 24.121094 41.144531 C 24.121094 41.316406 24.179688 41.464844 24.300781 41.585938 C 24.421875 41.707031 24.570312 41.769531 24.742188 41.769531 C 24.914062 41.769531 25.058594 41.707031 25.179688 41.585938 C 25.300781 41.464844 25.363281 41.316406 25.363281 41.144531 C 25.363281 40.976562 25.300781 40.828125 25.179688 40.707031 C 25.058594 40.585938 24.914062 40.523438 24.742188 40.523438 C 24.570312 40.523438 24.421875 40.585938 24.300781 40.707031 C 24.179688 40.828125 24.121094 40.976562 24.121094 41.144531 Z M 24.121094 41.144531 " fill-opacity="1" fill-rule="nonzero"/><path fill="#fa3aab" d="M 21.988281 51.054688 C 21.988281 51.171875 22.03125 51.269531 22.109375 51.347656 C 22.191406 51.429688 22.289062 51.46875 22.402344 51.46875 C 22.519531 51.46875 22.617188 51.429688 22.695312 51.347656 C 22.777344 51.269531 22.816406 51.171875 22.816406 51.054688 C 22.816406 50.941406 22.777344 50.84375 22.695312 50.761719 C 22.617188 50.683594 22.519531 50.640625 22.402344 50.640625 C 22.289062 50.640625 22.191406 50.683594 22.109375 50.761719 C 22.03125 50.84375 21.988281 50.941406 21.988281 51.054688 Z M 21.988281 51.054688 " fill-opacity="1" fill-rule="nonzero"/><path fill="#fa3aab" d="M 37.546875 51.347656 C 37.546875 51.542969 37.617188 51.710938 37.753906 51.847656 C 37.894531 51.988281 38.058594 52.058594 38.253906 52.058594 C 38.449219 52.058594 38.617188 51.988281 38.753906 51.847656 C 38.894531 51.710938 38.960938 51.542969 38.960938 51.347656 C 38.960938 51.152344 38.894531 50.988281 38.753906 50.847656 C 38.617188 50.710938 38.449219 50.640625 38.253906 50.640625 C 38.058594 50.640625 37.894531 50.710938 37.753906 50.847656 C 37.617188 50.988281 37.546875 51.152344 37.546875 51.347656 Z M 37.546875 51.347656 " fill-opacity="1" fill-rule="nonzero"/><path fill="#fa3aab" d="M 26.132812 19.582031 C 26.132812 19.714844 26.15625 19.84375 26.207031 19.964844 C 26.257812 20.085938 26.328125 20.195312 26.421875 20.285156 C 26.515625 20.378906 26.621094 20.453125 26.746094 20.503906 C 26.867188 20.550781 26.992188 20.578125 27.125 20.578125 C 27.257812 20.578125 27.382812 20.550781 27.503906 20.503906 C 27.625 20.453125 27.734375 20.378906 27.828125 20.285156 C 27.921875 20.195312 27.992188 20.085938 28.042969 19.964844 C 28.09375 19.84375 28.117188 19.714844 28.117188 19.582031 C 28.117188 19.453125 28.09375 19.324219 28.042969 19.203125 C 27.992188 19.082031 27.921875 18.972656 27.828125 18.882812 C 27.734375 18.789062 27.625 18.714844 27.503906 18.664062 C 27.382812 18.617188 27.257812 18.589844 27.125 18.589844 C 26.992188 18.589844 26.867188 18.617188 26.746094 18.664062 C 26.621094 18.714844 26.515625 18.789062 26.421875 18.882812 C 26.328125 18.972656 26.257812 19.082031 26.207031 19.203125 C 26.15625 19.324219 26.132812 19.453125 26.132812 19.582031 Z M 26.132812 19.582031 " fill-opacity="1" fill-rule="nonzero"/><path fill="#fa3aab" d="M 2.859375 5.722656 C 2.859375 5.902344 2.894531 6.078125 2.964844 6.246094 C 3.035156 6.414062 3.132812 6.5625 3.261719 6.691406 C 3.390625 6.820312 3.539062 6.917969 3.707031 6.988281 C 3.871094 7.054688 4.046875 7.089844 4.230469 7.089844 C 4.410156 7.089844 4.585938 7.054688 4.753906 6.988281 C 4.921875 6.917969 5.066406 6.820312 5.195312 6.691406 C 5.324219 6.5625 5.421875 6.414062 5.492188 6.246094 C 5.5625 6.078125 5.597656 5.902344 5.597656 5.722656 C 5.597656 5.542969 5.5625 5.367188 5.492188 5.199219 C 5.421875 5.03125 5.324219 4.882812 5.195312 4.753906 C 5.066406 4.625 4.921875 4.527344 4.753906 4.457031 C 4.585938 4.390625 4.410156 4.355469 4.230469 4.355469 C 4.046875 4.355469 3.871094 4.390625 3.707031 4.457031 C 3.539062 4.527344 3.390625 4.625 3.261719 4.753906 C 3.132812 4.882812 3.035156 5.03125 2.964844 5.199219 C 2.894531 5.367188 2.859375 5.542969 2.859375 5.722656 Z M 2.859375 5.722656 " fill-opacity="1" fill-rule="nonzero"/><g clip-path="url(#e7766636ee)"><g mask="url(#d6bb9f2a90)"><g transform="matrix(1, 0, 0, 1, 16, 27)"><g clip-path="url(#8a635a84e2)"><g clip-path="url(#7bf7b5aa06)"><path fill="#fa3aab" d="M 38.976562 61.507812 C 38.402344 60.738281 29.65625 48.808594 37.78125 47.832031 C 37.976562 47.808594 38.1875 47.792969 38.402344 47.78125 C 47.882812 47.332031 51.671875 47.351562 50.191406 41.976562 C 49.265625 38.613281 50.441406 37.117188 51.453125 36.46875 C 51.945312 36.152344 51.980469 35.445312 51.542969 35.058594 L 49.863281 33.582031 L 52.058594 33.015625 C 52.945312 32.789062 53.425781 31.820312 53.0625 30.980469 C 52.613281 29.953125 52.351562 28.710938 53.375 28.257812 C 54.382812 27.8125 56.183594 27.222656 57.621094 26.773438 C 58.636719 26.457031 59.003906 25.210938 58.324219 24.394531 C 55.96875 21.574219 51.539062 15.984375 50.742188 12.949219 C 49.945312 9.925781 51.714844 4.542969 52.582031 0.40625 C 52.582031 0.402344 52.582031 0.402344 52.582031 0.398438 L 39.28125 3.835938 L 34.488281 5.074219 C 33.359375 5.367188 32.363281 6.035156 31.664062 6.972656 L 31.574219 7.09375 L 25.800781 14.601562 C 25.320312 15.226562 25.21875 16.0625 25.535156 16.789062 L 27.617188 21.511719 C 27.617188 21.511719 46.355469 39.9375 32.742188 47.105469 C 19.128906 54.273438 13.980469 47.320312 0.574219 49.363281 C 12.664062 49.476562 25.335938 52.765625 39.007812 61.546875 C 39.003906 61.546875 39.003906 61.542969 39.003906 61.542969 Z M 38.976562 61.507812 " fill-opacity="1" fill-rule="nonzero"/></g></g></g></g></g><g clip-path="url(#4435831ffb)"><g mask="url(#df333e8260)"><g transform="matrix(1, 0, 0, 1, 45, 27)"><g clip-path="url(#c13eaf37a9)"><g clip-path="url(#6e4a3e3517)"><path fill="#040053" d="M 4.820312 27.765625 C 10.589844 38.820312 10.078125 44.820312 8.78125 47.832031 C 8.976562 47.808594 9.1875 47.792969 9.402344 47.78125 C 18.882812 47.332031 22.671875 47.351562 21.191406 41.976562 C 20.265625 38.613281 21.441406 37.117188 22.453125 36.46875 C 22.945312 36.152344 22.980469 35.445312 22.542969 35.058594 L 20.863281 33.582031 L 23.058594 33.015625 C 23.945312 32.789062 24.425781 31.820312 24.0625 30.980469 C 23.613281 29.953125 23.351562 28.710938 24.375 28.257812 C 25.382812 27.8125 27.183594 27.222656 28.621094 26.773438 C 29.636719 26.457031 30.003906 25.210938 29.324219 24.394531 C 26.96875 21.574219 22.539062 15.984375 21.742188 12.949219 C 20.945312 9.925781 22.714844 4.542969 23.582031 0.40625 C 23.582031 0.402344 23.582031 0.402344 23.582031 0.398438 L 10.28125 3.835938 L 5.488281 5.074219 C 4.359375 5.367188 3.363281 6.035156 2.664062 6.972656 L 2.574219 7.09375 C 0.542969 10.667969 -0.71875 17.15625 4.820312 27.765625 Z M 4.820312 27.765625 " fill-opacity="1" fill-rule="nonzero"/></g></g></g></g></g><g clip-path="url(#4758f3e158)"><g mask="url(#543444a4f3)"><g transform="matrix(1, 0, 0, 1, 45, 27)"><g clip-path="url(#692bc11e11)"><g clip-path="url(#e87506968e)"><path fill="#fa3aab" d="M 9.976562 61.507812 C 9.390625 60.71875 0.226562 48.222656 9.402344 47.78125 C 18.882812 47.332031 22.671875 47.351562 21.191406 41.976562 C 20.265625 38.613281 21.441406 37.117188 22.453125 36.46875 C 22.945312 36.152344 22.980469 35.445312 22.542969 35.058594 L 20.863281 33.582031 L 23.058594 33.015625 C 23.945312 32.789062 24.425781 31.820312 24.0625 30.980469 C 23.613281 29.953125 23.351562 28.710938 24.375 28.257812 C 25.382812 27.8125 27.183594 27.222656 28.621094 26.773438 C 29.636719 26.457031 30.003906 25.210938 29.324219 24.394531 C 26.96875 21.574219 22.539062 15.984375 21.742188 12.949219 C 20.945312 9.925781 22.714844 4.542969 23.582031 0.40625 C 23.582031 0.402344 23.582031 0.402344 23.582031 0.398438 L 10.28125 3.835938 L 8.550781 6.488281 C 5.382812 11.339844 5 17.503906 7.546875 22.710938 L 10.445312 28.632812 C 13.824219 35.546875 10.46875 43.867188 3.238281 46.5 C 0.121094 47.632812 -0.691406 51.667969 1.75 53.917969 Z M 9.976562 61.507812 " fill-opacity="1" fill-rule="nonzero"/></g></g></g></g></g><g mask="url(#f70d049993)"><g transform="matrix(1, 0, 0, 1, 38, 19)"><g clip-path="url(#5a0224b824)"><g clip-path="url(#d87a48c26b)"><path fill="#040053" d="M 2.261719 24.804688 C 1.746094 24.078125 1.726562 23.113281 2.214844 22.367188 L 8.441406 12.859375 C 8.886719 12.179688 9.484375 11.621094 10.183594 11.21875 L 26.328125 1.992188 C 24.742188 1.316406 23.191406 0.808594 21.679688 0.453125 L 7.816406 10.519531 C 7.410156 10.816406 7.078125 11.199219 6.847656 11.648438 L 1.539062 21.890625 C 0.917969 23.085938 1.109375 24.542969 2.015625 25.539062 L 5.617188 29.507812 Z M 2.261719 24.804688 " fill-opacity="1" fill-rule="nonzero"/></g></g></g></g><path fill="#fa3aab" d="M 40.261719 43.804688 C 39.746094 43.078125 39.726562 42.113281 40.214844 41.367188 L 46.441406 31.859375 C 46.886719 31.179688 47.484375 30.621094 48.183594 30.21875 L 64.328125 20.992188 C 62.742188 20.316406 61.191406 19.808594 59.679688 19.453125 L 45.816406 29.519531 C 45.410156 29.816406 45.078125 30.199219 44.847656 30.648438 L 39.539062 40.890625 C 38.917969 42.085938 39.109375 43.542969 40.015625 44.539062 L 43.617188 48.507812 Z M 40.261719 43.804688 " fill-opacity="1" fill-rule="nonzero"/><g clip-path="url(#e133964739)"><g mask="url(#39808f1a53)"><g transform="matrix(1, 0, 0, 1, 47, 27)"><g clip-path="url(#de6a649a2d)"><g clip-path="url(#65f05c4dbd)"><path fill="#fa3aab" d="M 0.804688 51.527344 C 0.804688 52.585938 1.167969 53.65625 1.9375 54.542969 L 7.976562 61.507812 C 7.472656 60.832031 0.652344 51.53125 4.527344 48.628906 C 4.761719 48.453125 5.03125 48.304688 5.347656 48.179688 C 5.898438 47.960938 6.574219 47.820312 7.402344 47.78125 C 16.882812 47.332031 20.671875 47.351562 19.191406 41.976562 C 18.265625 38.613281 19.441406 37.117188 20.453125 36.46875 C 20.945312 36.152344 20.980469 35.445312 20.542969 35.058594 L 18.863281 33.582031 L 21.058594 33.015625 C 21.945312 32.789062 22.425781 31.820312 22.0625 30.980469 C 21.613281 29.953125 21.351562 28.710938 22.375 28.257812 C 23.382812 27.8125 25.183594 27.222656 26.621094 26.773438 C 27.636719 26.457031 28.003906 25.210938 27.324219 24.394531 C 25.515625 22.230469 22.488281 18.433594 20.816406 15.414062 C 20.308594 14.5 19.925781 13.65625 19.742188 12.949219 C 18.945312 9.925781 20.714844 4.542969 21.582031 0.40625 C 21.582031 0.402344 21.582031 0.402344 21.582031 0.398438 L 15.253906 8.273438 C 11.417969 13.046875 10.140625 19.378906 11.820312 25.265625 L 13.007812 29.429688 C 15.144531 36.914062 11.023438 44.761719 3.644531 47.25 C 1.824219 48.011719 0.804688 49.75 0.804688 51.527344 Z M 0.804688 51.527344 " fill-opacity="1" fill-rule="nonzero"/></g></g></g></g></g><g clip-path="url(#dad7f4d6e9)"><path fill="#fa3aab" d="M 52.347656 75.179688 C 52.898438 74.960938 53.574219 74.820312 54.402344 74.78125 C 63.882812 74.332031 67.671875 74.351562 66.191406 68.976562 C 65.265625 65.613281 66.441406 64.117188 67.453125 63.46875 C 67.945312 63.152344 67.980469 62.445312 67.542969 62.058594 L 65.863281 60.582031 L 68.058594 60.015625 C 68.945312 59.789062 69.425781 58.820312 69.0625 57.980469 C 68.613281 56.953125 68.351562 55.710938 69.375 55.257812 C 70.382812 54.8125 72.183594 54.222656 73.621094 53.773438 C 74.636719 53.457031 75.003906 52.210938 74.324219 51.394531 C 72.515625 49.230469 69.488281 45.433594 67.816406 42.414062 C 65.210938 45.863281 63.734375 50.066406 63.648438 54.449219 L 63.558594 59.019531 C 63.433594 65.265625 59.984375 70.972656 54.511719 73.984375 Z M 52.347656 75.179688 " fill-opacity="1" fill-rule="nonzero"/></g><g mask="url(#902ab5bcd5)"><g transform="matrix(1, 0, 0, 1, 6, 6)"><g clip-path="url(#3bea7bbfbc)"><g clip-path="url(#31a7180e39)"><path fill="#fa3aab" d="M 2.515625 32.1875 L 3.558594 21.882812 C 2.695312 21.664062 2.054688 20.882812 2.054688 19.949219 C 2.054688 18.878906 2.898438 18.007812 3.957031 17.957031 L 4.535156 12.234375 C 4.027344 12.003906 3.683594 11.46875 3.734375 10.859375 C 3.792969 10.210938 4.316406 9.675781 4.964844 9.609375 C 5.308594 9.574219 5.628906 9.664062 5.886719 9.839844 C 7.296875 8.890625 10.003906 7.183594 13.542969 5.480469 C 13.816406 5.351562 14.097656 5.21875 14.386719 5.085938 C 14.289062 4.730469 14.277344 4.34375 14.421875 3.933594 C 14.6875 3.167969 15.386719 2.609375 16.195312 2.5625 C 16.976562 2.519531 17.667969 2.925781 18.03125 3.546875 C 22.523438 1.820312 28.125 0.304688 34.03125 0.246094 C 35.984375 0.230469 37.957031 0.421875 39.9375 0.816406 C 39.996094 1.023438 40.054688 1.234375 40.109375 1.445312 C 38.183594 1.046875 36.15625 0.824219 34.039062 0.84375 C 28.324219 0.902344 22.863281 2.332031 18.257812 4.109375 C 18.28125 4.207031 18.292969 4.308594 18.300781 4.414062 L 28.496094 5.199219 C 28.660156 4.710938 29.121094 4.355469 29.664062 4.355469 C 30.109375 4.355469 30.503906 4.597656 30.71875 4.957031 L 40.257812 2.058594 C 40.304688 2.25 40.347656 2.445312 40.386719 2.644531 L 30.890625 5.527344 C 30.890625 5.546875 30.894531 5.566406 30.894531 5.585938 C 30.894531 6.140625 30.527344 6.609375 30.027344 6.765625 L 30.292969 11.476562 C 30.757812 11.515625 31.179688 11.71875 31.5 12.023438 L 40.488281 3.179688 C 40.53125 3.421875 40.570312 3.664062 40.601562 3.90625 L 31.867188 12.496094 C 32.027344 12.785156 32.117188 13.113281 32.117188 13.464844 C 32.117188 14.011719 31.902344 14.503906 31.550781 14.863281 L 33.957031 17.898438 C 33.785156 18 33.613281 18.101562 33.433594 18.203125 L 31.070312 15.222656 C 30.789062 15.378906 30.464844 15.464844 30.121094 15.464844 C 29.757812 15.464844 29.417969 15.363281 29.125 15.195312 L 22.464844 21.742188 C 22.574219 21.863281 22.675781 21.992188 22.769531 22.125 C 19.386719 23.636719 16.722656 25.945312 14.632812 28.765625 C 14.429688 28.546875 14.246094 28.308594 14.082031 28.054688 L 4.476562 33.472656 C 4.558594 33.683594 4.605469 33.910156 4.609375 34.148438 L 11.160156 35.042969 C 11.082031 35.230469 11.003906 35.421875 10.929688 35.613281 L 4.527344 34.742188 C 4.410156 35.144531 4.167969 35.496094 3.847656 35.75 C 4.636719 37.144531 5.824219 39.269531 7.109375 41.652344 C 7.199219 41.628906 7.296875 41.617188 7.394531 41.617188 C 7.621094 41.617188 7.832031 41.679688 8.011719 41.789062 L 9.417969 40.351562 C 9.320312 40.730469 9.226562 41.109375 9.140625 41.492188 C 8.917969 42.441406 8.722656 43.402344 8.554688 44.367188 C 8.496094 44.691406 8.441406 45.015625 8.390625 45.339844 C 8.164062 44.90625 7.933594 44.46875 7.707031 44.039062 C 7.464844 44.101562 7.195312 44.101562 6.90625 43.972656 C 6.492188 43.789062 6.195312 43.386719 6.164062 42.933594 C 6.136719 42.53125 6.304688 42.167969 6.578125 41.925781 C 5.296875 39.554688 4.113281 37.4375 3.328125 36.042969 C 3.042969 36.15625 2.726562 36.203125 2.390625 36.167969 C 1.417969 36.058594 0.652344 35.234375 0.617188 34.253906 C 0.578125 33.152344 1.433594 32.242188 2.515625 32.1875 Z M 5.121094 12.363281 L 4.550781 18.015625 C 4.875 18.101562 5.167969 18.261719 5.40625 18.484375 L 11.535156 13.5625 C 11.464844 13.40625 11.421875 13.230469 11.421875 13.046875 C 11.421875 13.011719 11.425781 12.980469 11.425781 12.949219 L 6.375 11.542969 C 6.160156 12.023438 5.679688 12.359375 5.121094 12.363281 Z M 14.636719 5.644531 C 10.769531 7.429688 7.820312 9.269531 6.300781 10.285156 C 6.417969 10.480469 6.484375 10.710938 6.492188 10.953125 L 11.621094 12.378906 C 11.839844 12.039062 12.21875 11.816406 12.652344 11.816406 C 12.734375 11.816406 12.8125 11.824219 12.886719 11.839844 L 15.261719 6.257812 C 15.011719 6.101562 14.796875 5.890625 14.636719 5.644531 Z M 29.695312 11.515625 L 29.429688 6.796875 C 28.929688 6.699219 28.535156 6.300781 28.449219 5.792969 L 18.257812 5.007812 C 18.222656 5.144531 18.179688 5.277344 18.121094 5.402344 L 28.496094 12.304688 C 28.78125 11.910156 29.203125 11.621094 29.695312 11.515625 Z M 18.511719 19.949219 C 19.871094 19.949219 21.113281 20.46875 22.046875 21.316406 L 28.65625 14.820312 C 28.324219 14.460938 28.125 13.988281 28.125 13.464844 C 28.125 13.246094 28.160156 13.039062 28.226562 12.839844 L 17.789062 5.898438 C 17.53125 6.183594 17.199219 6.390625 16.816406 6.488281 L 18.25 19.957031 C 18.339844 19.953125 18.425781 19.949219 18.511719 19.949219 Z M 17.660156 20.019531 L 16.222656 6.550781 C 16.082031 6.546875 15.945312 6.523438 15.8125 6.492188 L 13.429688 12.089844 C 13.707031 12.316406 13.886719 12.660156 13.886719 13.046875 C 13.886719 13.398438 13.734375 13.71875 13.496094 13.941406 L 16.53125 20.335938 C 16.886719 20.191406 17.265625 20.085938 17.660156 20.019531 Z M 15.988281 20.59375 L 12.976562 14.234375 C 12.871094 14.261719 12.765625 14.277344 12.65625 14.277344 C 12.375 14.277344 12.117188 14.183594 11.910156 14.027344 L 5.78125 18.949219 C 5.953125 19.242188 6.050781 19.585938 6.050781 19.949219 C 6.050781 20.085938 6.039062 20.21875 6.011719 20.34375 L 13.675781 23.136719 C 14.140625 22.050781 14.960938 21.15625 15.988281 20.59375 Z M 4.183594 32.953125 L 13.789062 27.535156 C 13.445312 26.832031 13.25 26.046875 13.25 25.210938 C 13.25 24.6875 13.328125 24.175781 13.472656 23.695312 L 5.808594 20.90625 C 5.484375 21.5 4.867188 21.90625 4.152344 21.941406 L 3.109375 32.25 C 3.539062 32.359375 3.917969 32.609375 4.183594 32.953125 Z M 4.183594 32.953125 " fill-opacity="1" fill-rule="nonzero"/></g></g></g></g></g></g><g transform="matrix(1, 0, 0, 1, 90, 1)"><g clip-path="url(#b01ed74f22)"><g fill="#00e1e2" fill-opacity="1"><g transform="translate(0.0989721, 50.55593)"><g><path d="M 2.875 -30.40625 L 11.71875 -30.40625 L 11.71875 0 L 2.875 0 Z M 13.578125 -6.765625 L 13.921875 -6.765625 C 15.367188 -6.765625 16.394531 -6.828125 17 -6.953125 C 17.601562 -7.085938 18.050781 -7.40625 18.34375 -7.90625 C 18.664062 -8.4375 18.84375 -9.28125 18.875 -10.4375 C 18.9375 -11.90625 18.96875 -13.492188 18.96875 -15.203125 C 18.96875 -16.878906 18.9375 -18.488281 18.875 -20.03125 C 18.8125 -21.175781 18.625 -22.015625 18.3125 -22.546875 C 18.007812 -23.078125 17.519531 -23.398438 16.84375 -23.515625 C 16.164062 -23.609375 15.191406 -23.65625 13.921875 -23.65625 L 13.578125 -23.65625 L 13.578125 -30.40625 L 13.921875 -30.40625 C 16.273438 -30.40625 18.238281 -30.300781 19.8125 -30.09375 C 21.394531 -29.894531 22.703125 -29.570312 23.734375 -29.125 C 24.734375 -28.6875 25.53125 -28.082031 26.125 -27.3125 C 26.71875 -26.550781 27.144531 -25.59375 27.40625 -24.4375 C 27.644531 -23.40625 27.800781 -22.191406 27.875 -20.796875 C 27.945312 -19.398438 27.984375 -17.535156 27.984375 -15.203125 C 27.984375 -12.847656 27.945312 -10.976562 27.875 -9.59375 C 27.800781 -8.207031 27.644531 -7 27.40625 -5.96875 C 27.144531 -4.820312 26.71875 -3.863281 26.125 -3.09375 C 25.53125 -2.320312 24.734375 -1.71875 23.734375 -1.28125 C 22.703125 -0.84375 21.394531 -0.519531 19.8125 -0.3125 C 18.238281 -0.101562 16.273438 0 13.921875 0 L 13.578125 0 Z M 13.578125 -6.765625 "/></g></g></g><g fill="#00e1e2" fill-opacity="1"><g transform="translate(34.582892, 50.55593)"><g><path d="M 2.875 -30.40625 L 11.71875 -30.40625 L 11.71875 0 L 2.875 0 Z M 13.578125 -30.40625 L 24.796875 -30.40625 L 24.796875 -23.65625 L 13.578125 -23.65625 Z M 13.578125 -18.734375 L 22.71875 -18.734375 L 22.71875 -11.984375 L 13.578125 -11.984375 Z M 13.578125 -6.765625 L 24.796875 -6.765625 L 24.796875 0 L 13.578125 0 Z M 13.578125 -6.765625 "/></g></g></g><g fill="#00e1e2" fill-opacity="1"><g transform="translate(66.237362, 50.55593)"><g><path d="M 8.84375 -1.28125 C 8.457031 -2.457031 8.117188 -3.609375 7.828125 -4.734375 L 6.40625 -9.59375 C 5.9375 -11.1875 5.566406 -12.378906 5.296875 -13.171875 C 5.066406 -14.054688 4.878906 -14.71875 4.734375 -15.15625 L 0.21875 -30.40625 L 9.234375 -30.40625 L 17.5 0 L 9.234375 0 Z M 15.78125 -13.484375 L 20.25 -30.40625 L 29.078125 -30.40625 L 24.578125 -15.15625 L 22.9375 -9.59375 C 22.40625 -7.882812 21.921875 -6.265625 21.484375 -4.734375 C 21.191406 -3.609375 20.851562 -2.457031 20.46875 -1.28125 L 20.0625 0 L 19.453125 0 Z M 15.78125 -13.484375 "/></g></g></g><g fill="#00e1e2" fill-opacity="1"><g transform="translate(99.969709, 50.55593)"><g><path d="M 2.875 -30.40625 L 11.71875 -30.40625 L 11.71875 0 L 2.875 0 Z M 2.875 -30.40625 "/></g></g></g><g fill="#00e1e2" fill-opacity="1"><g transform="translate(118.980075, 50.55593)"><g><path d="M 2.875 -30.40625 L 11.71875 -30.40625 L 11.71875 0 L 2.875 0 Z M 13.578125 -30.40625 L 23.90625 -30.40625 L 23.90625 -23.65625 L 13.578125 -23.65625 Z M 13.578125 -17.859375 L 22.28125 -17.859375 L 22.28125 -11.09375 L 13.578125 -11.09375 Z M 13.578125 -17.859375 "/></g></g></g><g fill="#00e1e2" fill-opacity="1"><g transform="translate(148.866138, 50.55593)"><g><path d="M 9.546875 -10.03125 L 9.15625 -10.921875 L 8 -13.171875 L 6.890625 -15.515625 C 6.773438 -15.722656 6.628906 -16.03125 6.453125 -16.4375 L 4.640625 -20.203125 L -0.21875 -30.40625 L 8.796875 -30.40625 L 18.390625 -9.984375 L 18.390625 0 L 9.546875 0 Z M 15.25 -21 L 19.359375 -30.40625 L 28.203125 -30.40625 L 24.75 -23.25 L 23.296875 -20.25 L 20.515625 -14.453125 L 19.40625 -12.15625 Z M 15.25 -21 "/></g></g></g><g fill="#00e1e2" fill-opacity="1"><g transform="translate(181.27219, 50.55593)"><g><path d="M 2.828125 -7.203125 L 11.765625 -7.203125 L 11.765625 0 L 2.828125 0 Z M 2.828125 -7.203125 "/></g></g></g><g fill="#00e1e2" fill-opacity="1"><g transform="translate(200.282557, 50.55593)"><g><path d="M 2.875 -29.078125 L 2.875 -30.40625 L 11 -30.40625 L 23.734375 -3.359375 L 22.28125 0 L 16.53125 0 Z M 27.84375 -12.78125 L 27.671875 -12.78125 L 24.703125 -5.609375 L 20.90625 -13.75 L 27.84375 -30.40625 L 36.25 -30.40625 L 36.25 0 L 27.84375 0 Z M 2.875 -24.703125 L 11 -7.375 L 11 0 L 2.875 0 Z M 2.875 -24.703125 "/></g></g></g><g fill="#00e1e2" fill-opacity="1"><g transform="translate(243.829547, 50.55593)"><g><path d="M 2.875 -30.40625 L 11.71875 -30.40625 L 11.71875 0 L 2.875 0 Z M 13.578125 -30.40625 L 24.796875 -30.40625 L 24.796875 -23.65625 L 13.578125 -23.65625 Z M 13.578125 -18.734375 L 22.71875 -18.734375 L 22.71875 -11.984375 L 13.578125 -11.984375 Z M 13.578125 -6.765625 L 24.796875 -6.765625 L 24.796875 0 L 13.578125 0 Z M 13.578125 -6.765625 "/></g></g></g></g></g><g transform="matrix(1, 0, 0, 1, 91, 58)"><g clip-path="url(#33d2150e51)"><g fill="#fa3cac" fill-opacity="1"><g transform="translate(1.219251, 28.693838)"><g><path d="M 18.640625 0 L 18.640625 -13.953125 L 18.53125 -13.953125 L 12.453125 0 L 10.828125 0 L 4.765625 -13.953125 L 4.671875 -13.953125 L 4.671875 0 L 2.578125 0 L 2.578125 -17.734375 L 5.5625 -17.734375 L 11.625 -3.9375 L 11.75 -3.9375 L 17.8125 -17.734375 L 20.8125 -17.734375 L 20.8125 0 Z M 18.640625 0 "/></g></g></g><g fill="#fa3cac" fill-opacity="1"><g transform="translate(33.117407, 28.693838)"><g><path d="M 14.625 0 L 12.78125 -4.71875 L 4.796875 -4.71875 L 2.96875 0 L 0.71875 0 L 7.421875 -17.734375 L 10.203125 -17.734375 L 16.90625 0 Z M 8.84375 -15.34375 L 8.71875 -15.34375 L 5.46875 -6.8125 L 12.09375 -6.8125 Z M 8.84375 -15.34375 "/></g></g></g><g fill="#fa3cac" fill-opacity="1"><g transform="translate(59.265331, 28.693838)"><g><path d="M 14.03125 0 L 7.984375 -7.984375 L 4.796875 -7.984375 L 4.796875 0 L 2.578125 0 L 2.578125 -17.734375 L 4.796875 -17.734375 L 4.796875 -10.046875 L 7.984375 -10.046875 L 14.046875 -17.734375 L 16.53125 -17.734375 L 9.765625 -9.15625 L 16.609375 0 Z M 14.03125 0 "/></g></g></g><g fill="#fa3cac" fill-opacity="1"><g transform="translate(85.078045, 28.693838)"><g><path d="M 2.578125 0 L 2.578125 -17.734375 L 14.125 -17.734375 L 14.125 -15.671875 L 4.796875 -15.671875 L 4.796875 -9.984375 L 12.890625 -9.984375 L 12.890625 -7.921875 L 4.796875 -7.921875 L 4.796875 -2.0625 L 14.125 -2.0625 L 14.125 0 Z M 2.578125 0 "/></g></g></g><g fill="#fa3cac" fill-opacity="1"><g transform="translate(109.163111, 28.693838)"><g/></g></g><g fill="#fa3cac" fill-opacity="1"><g transform="translate(123.733224, 28.693838)"><g><path d="M 2.578125 0 L 2.578125 -17.734375 L 4.796875 -17.734375 L 4.796875 0 Z M 2.578125 0 "/></g></g></g><g fill="#fa3cac" fill-opacity="1"><g transform="translate(139.618405, 28.693838)"><g><path d="M 6.390625 0 L 6.390625 -15.59375 L 0.765625 -15.59375 L 0.765625 -17.734375 L 14.203125 -17.734375 L 14.203125 -15.59375 L 8.609375 -15.59375 L 8.609375 0 Z M 6.390625 0 "/></g></g></g><g fill="#fa3cac" fill-opacity="1"><g transform="translate(163.13618, 28.693838)"><g/></g></g><g fill="#fa3cac" fill-opacity="1"><g transform="translate(177.706292, 28.693838)"><g><path d="M 13.5625 0 L 10.796875 -6.953125 L 4.796875 -6.953125 L 4.796875 0 L 2.578125 0 L 2.578125 -17.734375 L 10.71875 -17.734375 C 12.132812 -17.734375 13.203125 -17.507812 13.921875 -17.0625 C 14.640625 -16.613281 15.109375 -16.007812 15.328125 -15.25 C 15.554688 -14.5 15.671875 -13.53125 15.671875 -12.34375 C 15.671875 -11.125 15.488281 -10.0625 15.125 -9.15625 C 14.769531 -8.257812 14.035156 -7.648438 12.921875 -7.328125 L 15.9375 0 Z M 9.796875 -9.015625 C 10.898438 -9.015625 11.710938 -9.128906 12.234375 -9.359375 C 12.753906 -9.597656 13.085938 -9.941406 13.234375 -10.390625 C 13.378906 -10.835938 13.453125 -11.488281 13.453125 -12.34375 C 13.453125 -13.21875 13.382812 -13.878906 13.25 -14.328125 C 13.113281 -14.773438 12.800781 -15.109375 12.3125 -15.328125 C 11.820312 -15.554688 11.046875 -15.671875 9.984375 -15.671875 L 4.796875 -15.671875 L 4.796875 -9.015625 Z M 9.796875 -9.015625 "/></g></g></g><g fill="#fa3cac" fill-opacity="1"><g transform="translate(203.802641, 28.693838)"><g><path d="M 2.578125 0 L 2.578125 -17.734375 L 14.125 -17.734375 L 14.125 -15.671875 L 4.796875 -15.671875 L 4.796875 -9.984375 L 12.890625 -9.984375 L 12.890625 -7.921875 L 4.796875 -7.921875 L 4.796875 -2.0625 L 14.125 -2.0625 L 14.125 0 Z M 2.578125 0 "/></g></g></g><g fill="#fa3cac" fill-opacity="1"><g transform="translate(227.887708, 28.693838)"><g><path d="M 14.625 0 L 12.78125 -4.71875 L 4.796875 -4.71875 L 2.96875 0 L 0.71875 0 L 7.421875 -17.734375 L 10.203125 -17.734375 L 16.90625 0 Z M 8.84375 -15.34375 L 8.71875 -15.34375 L 5.46875 -6.8125 L 12.09375 -6.8125 Z M 8.84375 -15.34375 "/></g></g></g><g fill="#fa3cac" fill-opacity="1"><g transform="translate(254.035621, 28.693838)"><g><path d="M 2.578125 0 L 2.578125 -17.734375 L 4.796875 -17.734375 L 4.796875 -2.140625 L 13.078125 -2.140625 L 13.078125 0 Z M 2.578125 0 "/></g></g></g></g></g></svg>